<svg xmlns="http://www.w3.org/2000/svg" xmlns:xlink="http://www.w3.org/1999/xlink" fill="none" version="1.1" width="120" height="120" viewBox="0 0 23.9959716796875 24"><g style="mix-blend-mode:passthrough"><g style="mix-blend-mode:passthrough"><path d="M14.803815685272216,0.3312835693359375L14.803815685272216,2.4309535693359376C17.700715685272215,3.2824435693359373,20.05721568527222,5.396643569335938,21.216715685272217,8.185733569335937L18.934015685272215,8.185733569335937C16.827815685272217,4.3613135693359375,12.021775685272218,2.9679835693359373,8.197475685272217,5.074913569335937C4.373203685272217,7.181853569335938,2.9815656852722165,11.989583569335938,5.087763685272217,15.815183569335938C7.193965685272216,19.640783569335937,12.000015685272217,21.032983569335936,15.824315685272216,18.925983569335937C17.398515685272216,18.058783569335937,18.629315685272218,16.68118356933594,19.316115685272216,15.020583569335937L21.508215685272216,15.020583569335937C20.499715685272218,18.182183569335937,17.98851568527222,20.637483569335938,14.805015685272217,21.572483569335937L14.805015685272217,23.67088356933594C21.245815685272216,22.119083569335938,25.210315685272217,15.638583569335937,23.660215685272217,9.195663569335938C22.606015685272215,4.813653569335938,19.185515685272215,1.3932135693359375,14.805015685272217,0.3373310393359375L14.803815685272216,0.3312835693359375ZM15.000015685272217,12.703083569335938L15.000015685272217,11.296883569335938L10.568865685272216,11.296883569335938L10.568865685272216,10.912383569335937Q10.594235685272217,10.070053569335938,11.217415685272217,9.828353569335938Q11.529015685272217,9.678203569335938,12.630465685272217,9.656233569335937L15.000015685272217,9.656233569335937L15.000015685272217,8.249983569335939L12.427565685272217,8.249983569335939Q11.126845685272217,8.249983569335939,10.405825685272216,8.564923569335937Q9.688435685272218,8.879863569335937,9.311625685272217,9.623273569335938Q9.010895685272217,10.150623569335938,9.000025685272217,11.835183569335937L9.000025685272217,15.749983569335937L10.568865685272216,15.749983569335937L10.568865685272216,12.703083569335938L15.000015685272217,12.703083569335938Z" fill-rule="evenodd" fill="#295DFA" fill-opacity="1"/></g><g style="mix-blend-mode:passthrough"><path d="M11.2274,2.06702C11.4861,2.04646,11.7461,2.03315,12.0085,2.03315C12.4014,2.03315,12.7943,2.05614,13.1849,2.1021L13.1849,0.0592651C12.7931,0.0205614,12.4014,0.00120949,12.0085,0C11.7425,0,11.4861,0.0120949,11.2274,0.0278183L11.2274,2.06702ZM9.60724,21.6765C4.26558,20.3521,1.00835,14.9469,2.33227,9.60337C3.22095,6.01602,6.02115,3.21483,9.60724,2.32586L9.60724,0.241898C3.11455,1.56266,-1.07729,7.89799,0.243012,14.393C1.20301,19.1124,4.88946,22.8014,9.60724,23.7605L9.60724,21.6765ZM12.0084,21.9693C12.4014,21.9693,12.7943,21.9463,13.1849,21.9003L13.1849,23.9407C12.798,23.9794,12.4086,24,12.0084,24C11.7461,24,11.4861,23.9891,11.2274,23.9722L11.2274,21.9354C11.4861,21.956,11.7424,21.9693,12.0084,21.9693Z" fill-rule="evenodd" fill="#BBCCFF" fill-opacity="1"/></g></g></svg>